<svg id="Layer_1" data-name="Layer 1" xmlns="http://www.w3.org/2000/svg" viewBox="0 0 1600.11 226.51"><defs><style>.cls-1{fill:#214643;}</style></defs><title>border</title><path class="cls-1" d="M1599.54,122.3l-.18.06c0-.31,0-.62,0-.94a2.29,2.29,0,0,0-.79-1.76,1.65,1.65,0,0,0-1.27-.14,3,3,0,0,0-1.35.68l0,0a16.91,16.91,0,0,0,.77-1.86,3.53,3.53,0,0,0,.24-1.92,1.61,1.61,0,0,0-1.83-1.24,2,2,0,0,0-1,.61,5.85,5.85,0,0,0-1.28-2,2.76,2.76,0,0,0-4.32.18,6.25,6.25,0,0,0-.33.63c-.23,0-.46,0-.7,0h-.17a5,5,0,0,0-3.29-3.86,1.21,1.21,0,0,0-1,.05,1.72,1.72,0,0,0-.47.53,8.52,8.52,0,0,0-1,2.39,6.14,6.14,0,0,0-1.79-.34c-.39,0-.91,0-1.09.51a1.92,1.92,0,0,0-.06.68c0,1,.34,3.39,1.13,4.41l-.12.19-1-.36a1.27,1.27,0,0,0-1.09-.06,1.19,1.19,0,0,0-.46.88,6.31,6.31,0,0,0-.72-.65,2.53,2.53,0,0,0-1.64-.68,1.58,1.58,0,0,0-1.21,1l-.09-.18c-.5-1.09-.93-3.1-2-3.51s-1.77.53-2.33,1.47a2.9,2.9,0,0,0-.39.92c-.11.74.37,1.58-.33,2.06s-1.64-.47-2.34-.55a1.94,1.94,0,0,0-1.46.41,1.67,1.67,0,0,0-.89.11,1.8,1.8,0,0,0-.6.53,7.37,7.37,0,0,0-.85,1.36c-1.64-1.39-3-3.29-5.25-1.52-2,1.51-2,3.93-1.21,6.17a2.44,2.44,0,0,0-.34.14,2.51,2.51,0,0,0-1,1.07,2.74,2.74,0,0,0-1.26-.25,1.94,1.94,0,0,0-1.52,1l-.11-.17c-.63-1.1-1.18-3.11-2.57-3.52s-2.23.54-2.93,1.48a2.4,2.4,0,0,0-.5.91c-.14.75.46,1.58-.41,2.07s-2.08-.47-3-.55a2.59,2.59,0,0,0-2.23.75c-.49.58-.29,1.74-.57,2.22l-.41.22a1.31,1.31,0,0,1-.52-.15c-2.63-1.29-4.3-4.22-7.7-2.15-2.47,1.51-2.49,3.93-1.51,6.17a2.25,2.25,0,0,0-.44.14,2.54,2.54,0,1,0,1.88,4.7c-.56.28-1.18.47-1.74.76a2.21,2.21,0,0,0-1.32,1.56,2.24,2.24,0,0,0,.5,1.44,4,4,0,0,0,1.46,1.26,16.81,16.81,0,0,0-2.35-.11,3.29,3.29,0,0,0-2,.49,1.48,1.48,0,0,0-.28.28c-.26-.16-.52-.32-.78-.45-.42-.23-1-.49-1.46-.14a1.69,1.69,0,0,0-.4.56c-.52,1-1.63,4.17-.52,5.19l-1.5-1.39a1.89,1.89,0,0,0-1.19-.65c-.65,0-1.1.61-1.31,1.19a5.12,5.12,0,0,0-.26,2.6c-1.21-.49-2.82-1.39-4-.89s-1.29,1.79-1.16,2.93a2.3,2.3,0,0,0,.27,1c.42.64,1.46.9,1.14,1.81s-1.89.94-2.61,1.43a2.3,2.3,0,0,0-1.14,1.95c.06,1.11,2.22,2.24.48,2.65-2.87.67-6.19-.49-7.28,3.18-1,3.28,1.8,5.3,4.87,6.19a4.89,4.89,0,0,0-.5.52,2.69,2.69,0,0,0-.15,3.34c1,1.28,2.79,1.32,4.3,1.61a5.9,5.9,0,0,0-3,4.63,3.88,3.88,0,0,0,3.53,3.88,3.63,3.63,0,0,0,1.5-.27,2.68,2.68,0,0,0,3,1.73c-.61.17-1.25.23-1.86.4a2.32,2.32,0,0,0-1.65,1.27,2.18,2.18,0,0,0,.17,1.5,3.91,3.91,0,0,0,1.13,1.52,17.38,17.38,0,0,0-2.26-.57,3.36,3.36,0,0,0-2.06.09,1.85,1.85,0,0,0-.9,2.18,10.13,10.13,0,0,0-6.38,2.52,1.67,1.67,0,0,0-.47-.37,3.12,3.12,0,0,0-2.05-.09,18.12,18.12,0,0,0-2.27.61,4.06,4.06,0,0,0,1.14-1.61,2.38,2.38,0,0,0,.17-1.59,2.29,2.29,0,0,0-1.63-1.35c-.61-.18-1.25-.24-1.86-.42a2.63,2.63,0,0,0,3-2,2.78,2.78,0,0,0-.58-2.16,5.93,5.93,0,0,0,1.19-1.26,1.62,1.62,0,0,0,.24-1.79,1.87,1.87,0,0,0-1.26-.56l-2.07-.33c1.53.25,3.53-2.58,4.12-3.66a1.55,1.55,0,0,0,.24-.68c0-.58-.53-.88-1-1.09a8.89,8.89,0,0,0-2.86-.77c.43-.8,1.18-1.41,1.29-2.36.19-1.51-1.17-2.06-2.45-2a5,5,0,0,0-.69.08,4.3,4.3,0,0,0-1-3.9c-2.58-3.09-5.09-.62-8-.1a1.2,1.2,0,0,1-.54,0l-.26-.18c-.3-.49.41-1.77.1-2.58a2.51,2.51,0,0,0-1.89-1.41c-.86-.18-2.34.39-3-.32s.15-1.42.25-2.21a2.47,2.47,0,0,0-.19-1.07c-.37-1.16-.88-2.36-2.32-2.35s-2.61,1.87-3.55,2.79c-.51.49-1.59,1.14-1.92,1.88a4.23,4.23,0,0,0-3.82-2.57,5.81,5.81,0,0,0-4,1.74,4.07,4.07,0,0,0-1.22-.33,4.08,4.08,0,0,0-1.37-2.82,2.75,2.75,0,0,0-2.08-.51,4.38,4.38,0,0,0-1.41-2.94,3.87,3.87,0,0,0-2.49-1.24,3.88,3.88,0,0,0-1.83-4.18c-2.45-1.52-4.57.08-6,2.4a3.14,3.14,0,0,0-.66-.15,5,5,0,0,0-1.26.15q-.33-.09-.66-.15a2.39,2.39,0,0,0-1.06-.05l0,0c-.7-.67,0-1.41,0-2.2a2.51,2.51,0,0,0-.29-1.05,7,7,0,0,0-.51-1l.09-.11,1.21-.55a3.7,3.7,0,0,0,1.34-.84,3.14,3.14,0,0,0,.37-3.13,4.51,4.51,0,0,0-2.14-2.21,6,6,0,0,0-.58-.25c1.55-1,3.14-2.4,3.14-4.39a3.22,3.22,0,0,0-1.69-2.88,2.5,2.5,0,0,0-3,.73,17.91,17.91,0,0,0,.91-2.89c.07-1-.8-2.22-1.59-1.75l2.58-3.62a4.67,4.67,0,0,0,.8-1.49,3,3,0,0,0-1-2.94,3.78,3.78,0,0,0-2.81-.71,6,6,0,0,0-1.79.48,2.4,2.4,0,0,0-2-1.32,2.48,2.48,0,0,0-2.2,2.59c-.06-.63,0-1.27-.06-1.9a2.45,2.45,0,0,0-.89-1.86,1.86,1.86,0,0,0-1.39-.13,3.39,3.39,0,0,0-1.56.83,17.91,17.91,0,0,0,.89-2.12,3.57,3.57,0,0,0,.25-2,1.76,1.76,0,0,0-2-1.29,2.71,2.71,0,0,0-1.79,1.88l-.72.79c.12-1.14.21-2.42-.38-3.18-.84-1.07-1.91-.65-2.88-.15a2.17,2.17,0,0,0-.8.58c-.45.6-.4,1.67-1.28,1.67s-1.33-1.49-2-2a2,2,0,0,0-2-.46c-1,.42-1.38,2.83-2.19,1.32-1.36-2.5-1.23-6-4.73-5.87s-4.33,4-4.11,7.42a2.12,2.12,0,0,0-2.07,1.47,2.63,2.63,0,0,0-.07.84,1.87,1.87,0,0,0,0,.25c-1.26.39-2.8,1.12-3,2.19.13-.68.26-1.37.4-2.05a2.2,2.2,0,0,0,0-1.37,1.29,1.29,0,0,0-1.53-.43,4.64,4.64,0,0,0-1.31.58c.13-1.88-.08-3.91-1.38-5a2.48,2.48,0,0,0-3,0,3.41,3.41,0,0,0-1.18,3.2,14.74,14.74,0,0,0-1.54-2.52c-.69-.65-2-.52-2.16.5-.37-1.5-.73-3-1.1-4.5a4.8,4.8,0,0,0-.61-1.61,2.21,2.21,0,0,0-2.67-.72,4.48,4.48,0,0,0-2.12,2.23,8.79,8.79,0,0,0-.89,3.74,4.36,4.36,0,0,0-1.31-1.38c-.81-.5-1.32-.51-1.62-.21-.82.78-.19,3.76,0,5.56a4,4,0,0,0-1.17-1.72,2.32,2.32,0,0,0-2.06-.78,2.48,2.48,0,0,0-1.36,2.41,6.79,6.79,0,0,0,.66,2.83,2.27,2.27,0,0,0-2.79-.37,2.87,2.87,0,0,0-.85,3.35v0c-.28-.48-.5-1-.79-1.46a2,2,0,0,0-1.58-1.1,2,2,0,0,0-1.26.68l-.15.17a3.81,3.81,0,0,0-.6-1.29,2.38,2.38,0,0,0-.56-.49,2.38,2.38,0,0,0-.5-1,1.6,1.6,0,0,0-2.31,0,1.78,1.78,0,0,0-.31.4l-.12-4a7.68,7.68,0,0,0-.39-2.71,2.09,2.09,0,0,0-1.87-1.48c-1.17.09-1.8,1.58-2.18,2.86l-1.08,3.56-.07,0a3.2,3.2,0,0,0-1.24-2.89,2.73,2.73,0,0,0-.59-.3,3.42,3.42,0,0,0-3.23.48,4,4,0,0,0-.6.57c-.18-.55-.43-1.1-.54-1.51-.36-1.25-.49-3.44-1.6-4.12s-2,.15-2.75,1a2.71,2.71,0,0,0-.58.87c-.24.74.13,1.72-.7,2.07s-1.69-.86-2.43-1.11a2,2,0,0,0-2,.38c-.77.77-.43,3.2-1.65,2.11-2-1.81-3-5.17-6.21-3.63-3.48,1.65-2.75,6.34-1.19,9.55a2.21,2.21,0,0,0-2.33.37,2.86,2.86,0,0,0-.13,3.82c-.48-.49-.82-1.13-1.27-1.66a1.91,1.91,0,0,0-1.7-.82,2.12,2.12,0,0,0-1.15.89,4.4,4.4,0,0,0-.55,1,6.07,6.07,0,0,0-1-2.4,2.2,2.2,0,0,0-.62-.89,1.55,1.55,0,0,0-2,.12c.08-1.15.1-2.3.07-3.45s-.33-2.84-1.4-3.18a1.75,1.75,0,0,0-1.84.76,6.11,6.11,0,0,0-.88,2.13c-.3,1.19-.55,2.4-.74,3.63l-.1,0A3.88,3.88,0,0,0,1318,121a7.39,7.39,0,0,0-2.65-1.75,1,1,0,0,0-.55-.13,1,1,0,0,0-.43.26,8.17,8.17,0,0,0-1.52,1.82c-.48-1.19-1-2.86-2-3.24s-1.93.56-2.54,1.55a2.79,2.79,0,0,0-.43,1c-.12.78.4,1.67-.36,2.18s-1.8-.5-2.56-.59a2,2,0,0,0-1.94.8c-.44.64-.23,2-.53,2.43l-.24.15a.82.82,0,0,1-.53-.16c-2.28-1.36-3.73-4.46-6.67-2.27-2.33,1.73-2.15,4.6-1.08,7.13a2.24,2.24,0,0,0-.72-.18,2.24,2.24,0,0,0-1.42-1.79,2.12,2.12,0,0,0-2.11.77,5.41,5.41,0,0,0-1,2.12c-.14.46-.26.93-.37,1.4a2.25,2.25,0,0,0-1,1l-.06.12a3.33,3.33,0,0,0-.49-.63,5.57,5.57,0,0,0-1.23-.92,2.07,2.07,0,0,0-.56-.58,1.32,1.32,0,0,0-1-.16l-.23-.1a1.17,1.17,0,0,0-.63-.12,1.2,1.2,0,0,0-.49.25c-.24.19-.45.4-.67.61a8.61,8.61,0,0,0-1.73-2.46c-.32-.32-.77-.72-1.21-.45a1.48,1.48,0,0,0-.45.51l-.21.33c-1.26-.28-2.06.65-2.73,1.6a3.72,3.72,0,0,0-.38.67h0c-.55-.13-1,.41-1.34,1a8,8,0,0,0-.39,1c-.3-.36-.62-.69-.82-1-.74-1-1.57-3-2.82-3.14s-1.8,1-2.23,2.1a2.7,2.7,0,0,0-.25,1.05c0,.79.67,1.55,0,2.22-.47.49-1.31.18-2,.05-1.43-1.05-2.87-1.76-5-.39a4.4,4.4,0,0,0-1.91,2.43,2.82,2.82,0,0,0-3.24,1.08,4.65,4.65,0,0,0-1.23,2.94,2.19,2.19,0,0,0-1.81.51c-1.16,1-1.16,2.82-1.39,4.32a9.6,9.6,0,0,0-.59-.83c0-.12-.09-.25-.15-.37a3.09,3.09,0,0,0-1.23-1.64,1.85,1.85,0,0,0-1.67,0,3.22,3.22,0,0,0-.69-.06,3.09,3.09,0,0,0-1.26.29,9.13,9.13,0,0,0-1.85-2.21c-.37-.32-.89-.72-1.4-.44a1.62,1.62,0,0,0-.51.5,12,12,0,0,0-.87,1.4c-.64-.82-1.36-1.65-2.2-1.65-1.25,0-1.7,1.19-2,2.35a2.81,2.81,0,0,0-.16,1.07.29.29,0,0,1-.1.4,6.36,6.36,0,0,0-.45.95c-.35-.36-.72-.69-.95-1-.84-1-1.8-3-3.24-3.14s-2.06,1-2.55,2.1a2.64,2.64,0,0,0-.3,1.05c0,.8.78,1.55,0,2.22s-2.13-.08-3,0a2.51,2.51,0,0,0-2,1.22c-.53,1,.73,3.15-1,2.67-2.84-.82-5.09-3.53-8-.72a4.34,4.34,0,0,0-1.41,2.94,2.7,2.7,0,0,0-2.08.51c-1.33,1-1.34,2.81-1.6,4.32a6.26,6.26,0,0,0-5-2.91,4.21,4.21,0,0,0-3.82,2.57c-.34-.75-1.42-1.39-1.92-1.88-.94-.93-2.1-2.79-3.55-2.8s-2,1.2-2.32,2.35a2.55,2.55,0,0,0-.19,1.08c.1.79.94,1.46.25,2.21s-2.12.14-3,.31a2.52,2.52,0,0,0-1.89,1.42c-.31.81.4,2.09.1,2.58l-.16.11a2.87,2.87,0,0,0-.94-2.5,4.81,4.81,0,0,0-.57-.44c2.89-1.31,5.33-3.69,3.84-6.8-1.65-3.48-4.75-1.87-7.7-2.14-1.77-.17.18-1.58.07-2.69a2.4,2.4,0,0,0-1.44-1.77c-.79-.38-2.37-.24-2.8-1s.53-1.25.84-2a2.21,2.21,0,0,0,.11-1c0-1.15-.21-2.37-1.61-2.74s-2.71.78-3.83,1.44a5.17,5.17,0,0,0-.66-2.54,1.63,1.63,0,0,0-1.48-1,1.84,1.84,0,0,0-1.08.8l-1.27,1.59c.93-1.17-.64-4.09-1.32-5.06a1.67,1.67,0,0,0-.49-.5c-.49-.29-1,.06-1.43.34-.23.17-.46.36-.69.56a1.49,1.49,0,0,0-.32-.24,3.39,3.39,0,0,0-2-.22,20,20,0,0,0-2.31.44,3.88,3.88,0,0,0,1.25-1.45,2.18,2.18,0,0,0,.27-1.49,2.25,2.25,0,0,0-1.55-1.36c-.6-.21-1.24-.31-1.84-.52a2.67,2.67,0,0,0,3.16-1.7,2.77,2.77,0,0,0-2-3.2,2.23,2.23,0,0,0-.45-.08c.62-2.35.22-4.74-2.46-5.89-3.69-1.58-4.88,1.56-7.28,3.19a1.58,1.58,0,0,1-.49.23l-.44-.16c-.35-.44-.34-1.62-.91-2.13a2.65,2.65,0,0,0-2.33-.43c-.86.21-1.94,1.3-2.83,1s-.48-1.27-.74-2a2.54,2.54,0,0,0-.63-.84c-.85-.83-1.83-1.64-3.13-1s-1.54,2.66-2,3.83l-.06.14a2.22,2.22,0,0,0-.21-.37A3.71,3.71,0,0,0,1134,120a5.47,5.47,0,0,0-4.79,1.19,11.06,11.06,0,0,0,.15-3.09,1.68,1.68,0,0,0-.19-.66c-.3-.47-1-.39-1.43-.31a9.4,9.4,0,0,0-2.19.64,7.94,7.94,0,0,0-1.66-2.17,2,2,0,0,0-.67-.45,2,2,0,0,0-1.2.11,5.44,5.44,0,0,0-3.44,4.11,1.75,1.75,0,0,0-.64-1,1.6,1.6,0,0,0-1.25-.14,3.2,3.2,0,0,0-.9.38l-.32-.07c.22-.5.44-1,.62-1.52a3.44,3.44,0,0,0,.25-1.89,1.6,1.6,0,0,0-1.81-1.23,2.12,2.12,0,0,0-1.24.92,9.77,9.77,0,0,0-.22-2.62c-.1-.44-.26-1-.71-1.08a1.08,1.08,0,0,0-.55.12,7.28,7.28,0,0,0-3.18,2.44l-.21,0c0-.39,0-.78,0-1.17a2,2,0,0,0-.26-1.24,1.1,1.1,0,0,0-1.42-.07,4.35,4.35,0,0,0-.93.68,5,5,0,0,0-.45-.74,1.88,1.88,0,0,0-2.42-.77,4.3,4.3,0,0,0-1.27,2.38c-.36,1.07-.79,2.62-1.83,2.51-1.24-.13-1.81-1.53-3.29-.65a10.51,10.51,0,0,0-.32,3.37l-.1-.08a2.46,2.46,0,0,0-1.62-.68,1.56,1.56,0,0,0-1.19,1l-.09-.17c-.49-1.08-.92-3.06-2-3.47s-1.74.53-2.29,1.46a2.59,2.59,0,0,0-.39.9c-.11.73.36,1.56-.32,2s-1.63-.46-2.32-.55a1.82,1.82,0,0,0-1.74.75c-.38.57-.23,1.72-.45,2.2l-.32.21a1,1,0,0,1-.4-.15c-2.06-1.27-3.37-4.17-6-2.12a4.16,4.16,0,0,0-1.65,3.33,5.41,5.41,0,0,0-1.61-2.32c-.84-.66-2-.88-2.46.41a4.92,4.92,0,0,0-.1,2.06,2,2,0,0,0-1.59-1,2.13,2.13,0,0,0-1.85,1.48l-.18.07c0-.31,0-.62,0-.93a2.27,2.27,0,0,0-.78-1.75,1.64,1.64,0,0,0-1.25-.13,2.93,2.93,0,0,0-1.33.66l0,0a17.69,17.69,0,0,0,.75-1.84,3.42,3.42,0,0,0,.24-1.89,1.58,1.58,0,0,0-1.81-1.22,1.92,1.92,0,0,0-1,.6,6,6,0,0,0-1.27-2,2.72,2.72,0,0,0-4.26.18,5.3,5.3,0,0,0-.32.63c-.23,0-.46,0-.7,0h-.17a5,5,0,0,0-3.24-3.81,1.18,1.18,0,0,0-.94.06,1.46,1.46,0,0,0-.46.52,8.25,8.25,0,0,0-1,2.35,6.33,6.33,0,0,0-1.77-.33c-.38,0-.9,0-1.07.5a1.67,1.67,0,0,0-.07.67c0,1,.34,3.35,1.12,4.36l-.12.18-1-.35a1.25,1.25,0,0,0-1.08-.06,1.16,1.16,0,0,0-.45.87,6.11,6.11,0,0,0-.72-.64,2.4,2.4,0,0,0-1.62-.67,1.56,1.56,0,0,0-1.19,1l-.09-.17c-.49-1.09-.92-3.07-2-3.47s-1.75.52-2.3,1.45a2.62,2.62,0,0,0-.38.91c-.12.73.35,1.56-.33,2s-1.63-.46-2.32-.54a1.87,1.87,0,0,0-1.43.41,1.53,1.53,0,0,0-.88.1,1.67,1.67,0,0,0-.59.53,7.22,7.22,0,0,0-.85,1.34c-1.62-1.37-2.9-3.25-5.18-1.5-1.94,1.49-2,3.88-1.19,6.09a2,2,0,0,0-.34.14,2.47,2.47,0,0,0-1,1.06,2.66,2.66,0,0,0-1.24-.26,1.92,1.92,0,0,0-1.5,1,1.74,1.74,0,0,1-.11-.18c-.62-1.08-1.17-3.06-2.54-3.46s-2.2.52-2.89,1.45a2.41,2.41,0,0,0-.49.9c-.14.74.45,1.56-.41,2s-2-.46-2.92-.54a2.55,2.55,0,0,0-2.2.74c-.49.57-.29,1.72-.57,2.2l-.4.21a1.27,1.27,0,0,1-.51-.15c-2.6-1.27-4.25-4.16-7.6-2.12-2.44,1.49-2.46,3.88-1.5,6.09a2.16,2.16,0,0,0-.43.14,2.5,2.5,0,1,0,1.85,4.63c-.55.28-1.16.47-1.71.75a2.18,2.18,0,0,0-1.3,1.55,2.1,2.1,0,0,0,.49,1.42,3.83,3.83,0,0,0,1.44,1.24,20,20,0,0,0-2.32-.11,3.32,3.32,0,0,0-2,.49,1.79,1.79,0,0,0-.27.28c-.25-.16-.51-.31-.77-.45-.42-.22-1-.48-1.44-.14a1.69,1.69,0,0,0-.4.56c-.52,1-1.6,4.11-.51,5.13l-1.48-1.38a1.83,1.83,0,0,0-1.18-.64c-.64,0-1.08.6-1.29,1.17a4.29,4.29,0,0,0-.2.7c-1.73-1.32-4.16-.37-6.5-.58-1.77-.17.18-1.58.07-2.69a2.4,2.4,0,0,0-1.44-1.77c-.79-.38-2.37-.24-2.8-1s.53-1.25.84-2a2.35,2.35,0,0,0,.12-1c-.05-1.15-.22-2.37-1.62-2.74s-2.7.78-3.83,1.44a5.17,5.17,0,0,0-.66-2.54,1.63,1.63,0,0,0-1.48-1,1.84,1.84,0,0,0-1.08.8l-1.27,1.59c.94-1.17-.64-4.09-1.32-5.06a1.56,1.56,0,0,0-.49-.5c-.49-.29-1,.06-1.42.34s-.47.36-.7.56a1.28,1.28,0,0,0-.32-.24,3.36,3.36,0,0,0-2-.22,20.19,20.19,0,0,0-2.32.44,3.79,3.79,0,0,0,1.25-1.45,2.18,2.18,0,0,0,.27-1.49,2.25,2.25,0,0,0-1.55-1.36c-.6-.21-1.24-.31-1.83-.52a2.66,2.66,0,0,0,3.15-1.7,2.77,2.77,0,0,0-2-3.2,2.33,2.33,0,0,0-.46-.08c.62-2.35.22-4.74-2.46-5.89-3.68-1.58-4.88,1.56-7.28,3.19a1.49,1.49,0,0,1-.49.23l-.44-.16c-.35-.44-.34-1.62-.91-2.13a2.63,2.63,0,0,0-2.32-.43c-.86.21-2,1.3-2.84,1s-.48-1.27-.74-2a2.54,2.54,0,0,0-.63-.84c-.85-.83-1.83-1.64-3.13-1a2.59,2.59,0,0,0-1.23,1.5,4.72,4.72,0,0,0-1.15-.47,5.62,5.62,0,0,0-5.5,1.81,10.61,10.61,0,0,0-1.26-2.41c0-.09,0-.18,0-.25a1.53,1.53,0,0,0-.19-.66c-.3-.47-.95-.39-1.43-.31h0a1.86,1.86,0,0,0-.34,0,2.1,2.1,0,0,0-1.4.54c-.14,0-.28.09-.42.15a7.74,7.74,0,0,0-1.66-2.17,2,2,0,0,0-.67-.45,2,2,0,0,0-1.19.11,5.35,5.35,0,0,0-2.5,1.91,2,2,0,0,0-.93,0,3.09,3.09,0,0,0-1.37.7l0,0c.29-.62.56-1.25.79-1.9a3.54,3.54,0,0,0,.24-1.92,1.6,1.6,0,0,0-1.83-1.24,2.11,2.11,0,0,0-1.25.93,10.07,10.07,0,0,0-.23-2.66c-.09-.44-.26-1-.71-1.09a1.13,1.13,0,0,0-.57.12,7.32,7.32,0,0,0-3.21,2.48l-.22,0c0-.39,0-.79,0-1.18a2,2,0,0,0-.26-1.26,1.13,1.13,0,0,0-1.44-.07,4.46,4.46,0,0,0-.94.69,6.2,6.2,0,0,0-.45-.75,1.92,1.92,0,0,0-2.46-.78,4.37,4.37,0,0,0-1.29,2.41c-.36,1.08-.79,2.65-1.84,2.54-1.27-.13-1.84-1.55-3.34-.65a11,11,0,0,0-.33,3.4l-.1-.08a2.49,2.49,0,0,0-1.64-.68,1.58,1.58,0,0,0-1.2,1,.91.91,0,0,1-.09-.17c-.5-1.09-.94-3.1-2-3.51s-1.76.53-2.32,1.47a2.51,2.51,0,0,0-.39.92c-.11.74.36,1.58-.33,2.06s-1.65-.47-2.35-.55a1.81,1.81,0,0,0-1.76.75c-.39.58-.23,1.74-.45,2.23l-.33.22a1,1,0,0,1-.41-.16c-2.08-1.28-3.41-4.22-6.1-2.15a4.29,4.29,0,0,0-1.67,3.38,5.52,5.52,0,0,0-1.62-2.35c-.86-.67-2-.89-2.5.42a4.86,4.86,0,0,0-.09,2.08,2.11,2.11,0,0,0-1.62-1,2.15,2.15,0,0,0-1.87,1.51l-.18.06c0-.31,0-.62,0-.94a2.32,2.32,0,0,0-.79-1.76,1.65,1.65,0,0,0-1.27-.14,2.94,2.94,0,0,0-1.35.68l0,0a19.05,19.05,0,0,0,.76-1.86,3.44,3.44,0,0,0,.25-1.92,1.62,1.62,0,0,0-1.84-1.24,2,2,0,0,0-1,.61,5.87,5.87,0,0,0-1.29-2,2.75,2.75,0,0,0-4.31.18,4.71,4.71,0,0,0-.33.63c-.23,0-.47,0-.7,0h-.18a5,5,0,0,0-3.28-3.86,1.2,1.2,0,0,0-1,.05,1.61,1.61,0,0,0-.47.53,8.52,8.52,0,0,0-1,2.39,6.14,6.14,0,0,0-1.8-.34c-.38,0-.91,0-1.08.51a1.92,1.92,0,0,0-.07.68c0,1,.34,3.39,1.13,4.41l-.11.19-1-.36a1.27,1.27,0,0,0-1.09-.06,1.16,1.16,0,0,0-.46.88,7.38,7.38,0,0,0-.73-.65,2.49,2.49,0,0,0-1.64-.68,1.58,1.58,0,0,0-1.2,1,.76.76,0,0,1-.09-.18c-.5-1.09-.94-3.1-2-3.51s-1.76.53-2.32,1.47a2.51,2.51,0,0,0-.39.92c-.11.74.36,1.58-.33,2.06s-1.65-.47-2.35-.55a1.93,1.93,0,0,0-1.45.41,1.67,1.67,0,0,0-.89.11,1.8,1.8,0,0,0-.6.53,7.42,7.42,0,0,0-.86,1.36c-1.64-1.39-2.94-3.29-5.25-1.52-2,1.51-2,3.93-1.2,6.17a2,2,0,0,0-.34.14,2.45,2.45,0,0,0-1,1.07,2.79,2.79,0,0,0-1.26-.25,2,2,0,0,0-1.53,1,1,1,0,0,0-.11-.17c-.62-1.1-1.18-3.11-2.56-3.52s-2.23.54-2.93,1.48a2.27,2.27,0,0,0-.5.91c-.14.75.46,1.58-.42,2.07s-2.07-.47-3-.55a2.6,2.6,0,0,0-2.23.75c-.48.58-.29,1.74-.56,2.22l-.42.22a1.27,1.27,0,0,1-.51-.15c-2.63-1.29-4.31-4.22-7.7-2.15-2.47,1.51-2.49,3.93-1.52,6.17a2.16,2.16,0,0,0-.43.14,2.89,2.89,0,0,0-1.52,1.59,9.74,9.74,0,0,0-3,.32c2.55-1.35,3.53-4.77,2.65-7.52a2.2,2.2,0,0,0-.53-1,2.35,2.35,0,0,0-1-.48,17,17,0,0,0-3.4-.58c0-.48.06-1,.07-1.44a7.14,7.14,0,0,0,1.5-1.65,6.9,6.9,0,0,0,.61-6.27,3,3,0,0,0-.76-1.16,3.34,3.34,0,0,0-1.42-.64,7,7,0,0,0-.8-.14,5.15,5.15,0,0,0,.4-1.54c.05-.58-.07-1.28-.6-1.51a1.66,1.66,0,0,0-1.23.11l-1.35.5-.05-.08c1-.87,1.26-3.46,1.25-4.45a1.51,1.51,0,0,0-.1-.64c-.22-.47-.81-.46-1.25-.42a7.87,7.87,0,0,0-2.86.77,2.48,2.48,0,0,0,.56-1.88,1.83,1.83,0,0,0-1.79-1.57,2.82,2.82,0,0,0-1.63.85c-.31.28-.61.57-.9.86l-.4-.25a4.2,4.2,0,0,0,0-.87,2.23,2.23,0,0,0-.59-1.32,2.11,2.11,0,0,0-1.88-.3c-.56.14-1.08.38-1.64.52a2.37,2.37,0,0,0,1.44-2.93c0-.07-.07-.14-.1-.2,2.44-.28,4.64-1.48,4.72-4.27.1-3.62-3.06-3.45-5.33-4.83-1.36-.83.8-1.29,1.17-2.28a2.29,2.29,0,0,0-.43-2.08c-.48-.63-1.82-1.13-1.83-2s1-.86,1.49-1.34a2.36,2.36,0,0,0,.51-.83c.44-1,.8-2.12-.17-3-.78-.69-2.16-.46-3.28-.31a1.27,1.27,0,0,0-.18-1.38l-.8-.46c.08-.84.56-1.63.33-2.49-.33-1.32-1.65-1.34-2.71-.89a5.33,5.33,0,0,0-2.09,1.75l-.2-.19L767,78l.46-1.51a2.62,2.62,0,0,0,.66-2.42,1.84,1.84,0,0,0-2-1.33,2.86,2.86,0,0,0-1.51,1.06,17.31,17.31,0,0,0-1.28,1.68,3.66,3.66,0,0,0-.07-1.77,2.12,2.12,0,0,0-.76-1.22,2.05,2.05,0,0,0-1.9-.06c-.53.21-1,.51-1.55.72a2.38,2.38,0,0,0,1.2-2.67c2.81-.07,5.62-1.21,5.68-4.39.07-3.62-3.09-3.42-5.38-4.78a1.11,1.11,0,0,1-.37-.32c0-.12,0-.23,0-.35.19-.48,1.32-.92,1.57-1.62a2.25,2.25,0,0,0-.45-2.07c-.48-.63-1.82-1.11-1.84-2s.94-.88,1.47-1.36a2.31,2.31,0,0,0,.51-.84c.43-1,.78-2.12-.2-3s-2.87-.27-4-.19h-.28a2.22,2.22,0,0,0,.18-.38,1.84,1.84,0,0,0-.84-2.23,2.86,2.86,0,0,0-1.85,0c-.43.1-.86.23-1.28.37l-.28-.25a3.82,3.82,0,0,0,.51-1,2.21,2.21,0,0,0,.1-1.43,2.09,2.09,0,0,0-1.52-1.15c-.56-.14-1.13-.18-1.69-.31a2.37,2.37,0,0,0,2.64-1.91,2.44,2.44,0,0,0-.55-1.87,5.28,5.28,0,0,0,2.17-1.29,1.45,1.45,0,0,0,.51-1.54,1.65,1.65,0,0,0-1-.7l-1.71-.62h0c1.32.38,3.5-1.72,4.19-2.56a1.59,1.59,0,0,0,.33-.56c.13-.5-.33-.87-.69-1.12a7.92,7.92,0,0,0-1.46-.83c1.5-2.45,2.09-5.54-.63-7.3-3-2-4.54.83-6.9,2a1.22,1.22,0,0,1-.24.1l-.67-.4c-.13-.53-.05-1.41-.42-1.88a2.27,2.27,0,0,0-2-.72c-.79.08-1.91,1-2.65.53s-.25-1.26-.38-2a2.31,2.31,0,0,0-.44-.87c-.63-.89-1.39-1.78-2.63-1.4a3.1,3.1,0,0,0-1.59,1.81,3.48,3.48,0,0,0-2.7,1l0,0a8.48,8.48,0,0,0,1.19-4.1,1.55,1.55,0,0,0-.08-.64c-.2-.48-.79-.5-1.22-.48a8.22,8.22,0,0,0-1.87.28,3.26,3.26,0,0,0,.05-2.07,3.9,3.9,0,0,0-.2-.47,10,10,0,0,0-.26-1.11,2.34,2.34,0,0,0-.79-.24,6,6,0,0,0-.52-.4,5.44,5.44,0,0,0-4.37-.71l-.18-.45a4,4,0,0,0-1.46-2.29,1.82,1.82,0,0,0-.56-.17,2.49,2.49,0,0,0-1.23-1.15c-1.31-.51-2.57.52-3.59,1.7h0c.06-1.12.14-2.43-.46-3.15-.8-.94-1.75-.49-2.6,0a2.05,2.05,0,0,0-.7.58c-.39.58-.29,1.57-1.09,1.61s-1.25-1.29-1.83-1.74a1.73,1.73,0,0,0-1.84-.31c-.84.44-1.12,2.69-1.92,1.34-1.32-2.24-1.35-5.49-4.5-5.15-2.05.22-3,1.92-3.35,4l-.23-.06A1.84,1.84,0,0,0,700,5,3.15,3.15,0,0,0,699.79,4a10.69,10.69,0,0,0-1.25-2.81,1.89,1.89,0,0,0-2.42-.77,4.24,4.24,0,0,0-1.27,2.35c-.36,1.06-.79,2.6-1.83,2.49-1.24-.13-1.81-1.51-3.29-.64a11,11,0,0,0-.29,3.76,6.09,6.09,0,0,0-1.7-.3c-.38,0-.9,0-1.07.49a1.83,1.83,0,0,0-.06.66,9,9,0,0,0,.07.91,4.27,4.27,0,0,0-1.37-.07,4.37,4.37,0,0,0-1.67.49c-.94-.18-1.55.65-2.06,1.5a3.07,3.07,0,0,0-.17.31c0-.14-.11-.27-.16-.4a9.9,9.9,0,0,0-1.42-2.74,2.41,2.41,0,0,0-2.78-.75,4,4,0,0,0-1.46,2.29c-.41,1-.9,2.53-2.09,2.43-1.43-.13-2.07-1.48-3.77-.63a8.64,8.64,0,0,0-.37,3,3.75,3.75,0,0,0-.55.58,8.17,8.17,0,0,0-1.35-.17c-.44,0-1,0-1.23.48a1.74,1.74,0,0,0-.08.64,8.48,8.48,0,0,0,1.19,4.1l-.11.26-1-.32A1.72,1.72,0,0,0,665,21c-.46-1-1-2.32-2-2.63-1.24-.38-2,.51-2.63,1.4a2.31,2.31,0,0,0-.44.87c-.13.71.41,1.51-.38,2s-1.86-.45-2.65-.53a2.25,2.25,0,0,0-2,.72c-.38.47-.3,1.35-.43,1.88l-.67.4a1.22,1.22,0,0,1-.24-.1c-2.36-1.22-3.86-4-6.9-2-2.72,1.76-2.13,4.85-.63,7.3a7.92,7.92,0,0,0-1.46.83c-.36.25-.82.62-.69,1.12a1.59,1.59,0,0,0,.33.56c.69.84,2.87,2.94,4.19,2.56h0l-1.71.62a1.65,1.65,0,0,0-1,.7,1.45,1.45,0,0,0,.51,1.54,5.28,5.28,0,0,0,2.17,1.29,2.44,2.44,0,0,0-.55,1.87,2.37,2.37,0,0,0,2.64,1.91c-.56.13-1.13.17-1.69.31a2.09,2.09,0,0,0-1.52,1.15,2.21,2.21,0,0,0,.1,1.43,3.82,3.82,0,0,0,.51,1l-.28.25c-.42-.14-.85-.27-1.28-.37a2.86,2.86,0,0,0-1.85,0,1.84,1.84,0,0,0-.84,2.23,1.69,1.69,0,0,0,.19.38h-.29c-1.18-.08-3.07-.66-4,.19s-.63,2-.2,3a2.31,2.31,0,0,0,.51.84c.53.48,1.49.45,1.47,1.36s-1.36,1.34-1.84,2A2.25,2.25,0,0,0,639,59c.25.7,1.38,1.14,1.57,1.62,0,.12,0,.23,0,.35a1.11,1.11,0,0,1-.37.32c-2.28,1.36-5.45,1.16-5.38,4.78.06,3.18,2.87,4.32,5.68,4.39a2.38,2.38,0,0,0,1.2,2.67c-.53-.21-1-.51-1.55-.72a2.05,2.05,0,0,0-1.9.06,2.12,2.12,0,0,0-.76,1.22,3.66,3.66,0,0,0-.07,1.77,17.31,17.31,0,0,0-1.28-1.68,2.86,2.86,0,0,0-1.51-1.06,1.84,1.84,0,0,0-2,1.33,2.65,2.65,0,0,0,.66,2.42L633.7,78l.34.1-.2.19a5.33,5.33,0,0,0-2.09-1.75c-1.06-.45-2.38-.43-2.71.89-.22.86.25,1.65.33,2.49l-.8.46a1.27,1.27,0,0,0-.18,1.38c-1.12-.15-2.5-.38-3.28.31-1,.85-.61,2-.17,3a2.25,2.25,0,0,0,.52.83c.53.48,1.49.43,1.48,1.34s-1.35,1.36-1.83,2a2.26,2.26,0,0,0-.42,2.08c.36,1,2.53,1.45,1.16,2.28-2.27,1.38-5.43,1.21-5.33,4.83.08,2.79,2.28,4,4.72,4.27,0,.06-.07.13-.1.2a2.37,2.37,0,0,0,1.44,2.93c-.56-.14-1.08-.38-1.64-.52a2.11,2.11,0,0,0-1.88.3,2.23,2.23,0,0,0-.59,1.32,4.2,4.2,0,0,0,0,.87l-.4.25c-.29-.29-.58-.58-.89-.86a2.87,2.87,0,0,0-1.64-.85,1.83,1.83,0,0,0-1.79,1.57,2.48,2.48,0,0,0,.56,1.88,7.87,7.87,0,0,0-2.86-.77c-.43,0-1,0-1.25.42a1.51,1.51,0,0,0-.1.64c0,1,.26,3.58,1.25,4.45l-.05.08-1.35-.5a1.66,1.66,0,0,0-1.23-.11c-.53.23-.65.93-.6,1.51a5.15,5.15,0,0,0,.4,1.54,7,7,0,0,0-.8.14,3.34,3.34,0,0,0-1.42.64,3,3,0,0,0-.76,1.16,6.9,6.9,0,0,0,.61,6.27,7.14,7.14,0,0,0,1.5,1.65c0,.48,0,1,.07,1.44a17,17,0,0,0-3.4.58,2.35,2.35,0,0,0-1,.48,2.2,2.2,0,0,0-.53,1c-.88,2.75.1,6.17,2.65,7.52a9.62,9.62,0,0,0-4.43-.15,1.25,1.25,0,0,0-1.24,1.51,7.09,7.09,0,0,0,.54,2.44,1.89,1.89,0,0,0-.47-.11,2.64,2.64,0,0,0-2.83,2.14,2.39,2.39,0,0,0,1.74,2.52l0,0c-.47,0-.94-.13-1.41-.15a2.85,2.85,0,0,0-1.08.18,1,1,0,0,1-.37-.37c-.46-.86.53-1.25.84-2a2.21,2.21,0,0,0,.11-1c0-1.15-.21-2.37-1.61-2.74s-2.71.78-3.83,1.44a5.17,5.17,0,0,0-.66-2.54,1.63,1.63,0,0,0-1.48-1,1.84,1.84,0,0,0-1.08.8l-1.27,1.59c.93-1.17-.64-4.09-1.32-5.06a1.67,1.67,0,0,0-.49-.5c-.49-.29-1,.06-1.43.34-.23.17-.46.36-.69.56a1.49,1.49,0,0,0-.32-.24,3.39,3.39,0,0,0-2.05-.22,20,20,0,0,0-2.31.44,3.88,3.88,0,0,0,1.25-1.45,2.18,2.18,0,0,0,.27-1.49,2.25,2.25,0,0,0-1.55-1.36c-.6-.21-1.24-.31-1.84-.52a2.67,2.67,0,0,0,3.16-1.7,2.77,2.77,0,0,0-2-3.2A2.23,2.23,0,0,0,581,126c.62-2.35.22-4.74-2.46-5.89-3.69-1.58-4.88,1.56-7.28,3.19a1.58,1.58,0,0,1-.49.23l-.44-.16c-.35-.44-.34-1.62-.91-2.13a2.65,2.65,0,0,0-2.33-.43c-.86.21-1.94,1.3-2.84,1s-.47-1.27-.73-2a2.45,2.45,0,0,0-.64-.84c-.84-.83-1.82-1.64-3.12-1a2.64,2.64,0,0,0-1.24,1.5,4.5,4.5,0,0,0-1.14-.47,5.62,5.62,0,0,0-5.5,1.81,11.48,11.48,0,0,0-1.26-2.41c0-.09,0-.18,0-.25a1.68,1.68,0,0,0-.19-.66c-.3-.47-.95-.39-1.43-.31h0a1.86,1.86,0,0,0-.34,0,2.14,2.14,0,0,0-1.41.54c-.13,0-.28.09-.41.15a7.94,7.94,0,0,0-1.66-2.17,2,2,0,0,0-.67-.45,2,2,0,0,0-1.2.11,5.4,5.4,0,0,0-2.5,1.91,1.91,1.91,0,0,0-.92,0,3.18,3.18,0,0,0-1.38.7v0a18.48,18.48,0,0,0,.78-1.9,3.45,3.45,0,0,0,.25-1.92,1.61,1.61,0,0,0-1.84-1.24,2.09,2.09,0,0,0-1.24.93,10.07,10.07,0,0,0-.23-2.66c-.1-.44-.26-1-.72-1.09a1.11,1.11,0,0,0-.56.12,7.32,7.32,0,0,0-3.21,2.48l-.22,0c0-.39,0-.79,0-1.18a2.08,2.08,0,0,0-.26-1.26,1.13,1.13,0,0,0-1.44-.07,4.52,4.52,0,0,0-.95.69,4.38,4.38,0,0,0-.45-.75,1.9,1.9,0,0,0-2.45-.78,4.37,4.37,0,0,0-1.29,2.41c-.36,1.08-.8,2.65-1.85,2.54-1.26-.13-1.83-1.55-3.33-.65a11,11,0,0,0-.33,3.4l-.1-.08a2.49,2.49,0,0,0-1.64-.68,1.6,1.6,0,0,0-1.21,1,.89.89,0,0,1-.08-.17c-.5-1.09-.94-3.1-2-3.51s-1.76.53-2.32,1.47a2.51,2.51,0,0,0-.39.92c-.12.74.36,1.58-.33,2.06s-1.65-.47-2.35-.55a1.8,1.8,0,0,0-1.76.75c-.39.58-.23,1.74-.46,2.23l-.32.22a1,1,0,0,1-.41-.16c-2.09-1.28-3.41-4.22-6.1-2.15a4.26,4.26,0,0,0-1.67,3.38,5.54,5.54,0,0,0-1.63-2.35c-.85-.67-2-.89-2.49.42a5,5,0,0,0-.1,2.08,2.08,2.08,0,0,0-1.61-1,2.14,2.14,0,0,0-1.87,1.51l-.19.06c0-.31,0-.62,0-.94a2.33,2.33,0,0,0-.8-1.76,1.63,1.63,0,0,0-1.26-.14,2.89,2.89,0,0,0-1.35.68l0,0a19.05,19.05,0,0,0,.76-1.86,3.53,3.53,0,0,0,.25-1.92,1.62,1.62,0,0,0-1.84-1.24,2,2,0,0,0-1,.61,6,6,0,0,0-1.29-2,2.76,2.76,0,0,0-4.32.18,6.19,6.19,0,0,0-.32.63c-.23,0-.47,0-.7,0H478a5,5,0,0,0-3.28-3.86,1.2,1.2,0,0,0-1,.05,1.75,1.75,0,0,0-.48.53,8.82,8.82,0,0,0-1,2.39,6.14,6.14,0,0,0-1.79-.34c-.39,0-.91,0-1.08.51a1.72,1.72,0,0,0-.07.68c0,1,.34,3.39,1.13,4.41l-.12.19-1-.36a1.27,1.27,0,0,0-1.09-.06,1.16,1.16,0,0,0-.46.88,7.38,7.38,0,0,0-.73-.65,2.49,2.49,0,0,0-1.64-.68,1.59,1.59,0,0,0-1.21,1,1.42,1.42,0,0,1-.08-.18c-.5-1.09-.94-3.1-2-3.51s-1.76.53-2.32,1.47a2.51,2.51,0,0,0-.39.92c-.12.74.36,1.58-.33,2.06s-1.65-.47-2.35-.55a1.9,1.9,0,0,0-1.45.41,1.72,1.72,0,0,0-.9.11,1.76,1.76,0,0,0-.59.53,7.42,7.42,0,0,0-.86,1.36c-1.64-1.39-2.94-3.29-5.25-1.52-2,1.51-2,3.93-1.2,6.17a2.13,2.13,0,0,0-.35.14,2.57,2.57,0,0,0-1,1.07,2.72,2.72,0,0,0-1.25-.25,2,2,0,0,0-1.53,1l-.11-.17c-.63-1.1-1.18-3.11-2.57-3.52s-2.22.54-2.93,1.48a2.25,2.25,0,0,0-.49.91c-.14.75.46,1.58-.42,2.07s-2.08-.47-3-.55a2.59,2.59,0,0,0-2.23.75c-.49.58-.29,1.74-.57,2.22l-.41.22a1.27,1.27,0,0,1-.51-.15c-2.64-1.29-4.31-4.22-7.7-2.15-2.48,1.51-2.5,3.93-1.52,6.17a2.25,2.25,0,0,0-.44.14,2.54,2.54,0,1,0,1.88,4.7c-.56.28-1.17.47-1.73.76a2.22,2.22,0,0,0-1.33,1.56,2.19,2.19,0,0,0,.51,1.44,4,4,0,0,0,1.46,1.26,17,17,0,0,0-2.36-.11,3.29,3.29,0,0,0-2,.49,1.48,1.48,0,0,0-.28.28,8.57,8.57,0,0,0-.77-.45c-.43-.23-1-.49-1.46-.14a1.59,1.59,0,0,0-.41.56c-.52,1-1.62,4.17-.52,5.19l-1.5-1.39a1.87,1.87,0,0,0-1.19-.65c-.65,0-1.09.61-1.31,1.19a5.23,5.23,0,0,0-.26,2.6c-1.21-.49-2.81-1.39-4-.89s-1.3,1.79-1.17,2.93a2.31,2.31,0,0,0,.28,1c.41.64,1.45.9,1.13,1.81s-1.88.94-2.6,1.43a2.34,2.34,0,0,0-1.15,1.95c.06,1.11,2.22,2.24.49,2.65-2.16.5-4.55,0-6.08,1.23a2.93,2.93,0,0,0-.75-.27c-.87-.18-2.34.39-3-.32s.16-1.41.25-2.21a2.49,2.49,0,0,0-.18-1.07c-.37-1.16-.89-2.36-2.33-2.35s-2.6,1.87-3.54,2.79c-.51.5-1.59,1.14-1.92,1.88a4.23,4.23,0,0,0-3.83-2.57,5.79,5.79,0,0,0-4,1.74,4.15,4.15,0,0,0-1.22-.33,4.16,4.16,0,0,0-1.37-2.82,2.76,2.76,0,0,0-2.08-.51,4.4,4.4,0,0,0-1.41-2.94,3.83,3.83,0,0,0-2.49-1.23c.15-1.61,0-3.07-1.83-4.18-2.46-1.53-4.58.07-6,2.39a3.82,3.82,0,0,0-.67-.15,5.42,5.42,0,0,0-1.25.15l-.67-.15a2.53,2.53,0,0,0-1.06,0l0,0c-.7-.67,0-1.41,0-2.2a2.51,2.51,0,0,0-.29-1.05,9.11,9.11,0,0,0-.51-1l.09-.11,1.21-.55a3.58,3.58,0,0,0,1.33-.84,3.09,3.09,0,0,0,.37-3.13,4.47,4.47,0,0,0-2.14-2.21c-.18-.09-.38-.17-.57-.25,1.55-1,3.14-2.39,3.14-4.39a3.22,3.22,0,0,0-1.69-2.88,2.53,2.53,0,0,0-2.95.73,17.6,17.6,0,0,0,.91-2.89c.07-1-.8-2.22-1.59-1.75l2.58-3.62a4.76,4.76,0,0,0,.8-1.49,3,3,0,0,0-1-2.93,3.76,3.76,0,0,0-2.8-.72,5.94,5.94,0,0,0-1.79.48,2.4,2.4,0,0,0-2-1.32,2.5,2.5,0,0,0-2.21,2.59c-.05-.63,0-1.27-.06-1.9a2.41,2.41,0,0,0-.88-1.86,1.86,1.86,0,0,0-1.39-.12,3.24,3.24,0,0,0-1.56.82,22,22,0,0,0,.89-2.12,3.64,3.64,0,0,0,.25-2,1.76,1.76,0,0,0-2-1.29,2.69,2.69,0,0,0-1.79,1.88l-.72.79c.12-1.14.21-2.41-.38-3.17-.84-1.08-1.91-.66-2.88-.16a2.29,2.29,0,0,0-.8.58c-.46.61-.4,1.67-1.28,1.67s-1.33-1.49-2-2a1.94,1.94,0,0,0-2-.45c-1,.41-1.38,2.82-2.2,1.32-1.35-2.51-1.22-6-4.72-5.88s-4.33,4-4.11,7.42A2.13,2.13,0,0,0,317,118.6a2.34,2.34,0,0,0-.07.84,2,2,0,0,0,0,.24c-1.25.39-2.79,1.12-3,2.19l.39-2.05a2.07,2.07,0,0,0-.05-1.37,1.28,1.28,0,0,0-1.53-.43,4.71,4.71,0,0,0-1.3.58c.13-1.88-.08-3.91-1.39-4.95a2.46,2.46,0,0,0-3-.06,3.4,3.4,0,0,0-1.17,3.2,14.9,14.9,0,0,0-1.54-2.51c-.69-.66-2-.53-2.16.49l-1.11-4.5a4.79,4.79,0,0,0-.6-1.61,2.22,2.22,0,0,0-2.68-.72,4.52,4.52,0,0,0-2.12,2.23,8.79,8.79,0,0,0-.88,3.74,4.47,4.47,0,0,0-1.31-1.38c-.81-.49-1.32-.51-1.63-.21-.81.79-.19,3.77,0,5.56a4,4,0,0,0-1.17-1.72,2.29,2.29,0,0,0-2.06-.77,2.46,2.46,0,0,0-1.36,2.4,6.79,6.79,0,0,0,.66,2.83,2.27,2.27,0,0,0-2.79-.36,2.85,2.85,0,0,0-.85,3.34l0,0c-.27-.48-.49-1-.79-1.46a1.6,1.6,0,0,0-2.83-.42l-.15.18a4.06,4.06,0,0,0-.6-1.3,2.34,2.34,0,0,0-.56-.48,2.33,2.33,0,0,0-.51-1,1.59,1.59,0,0,0-2.3,0,2,2,0,0,0-.31.4l-.12-4a7.7,7.7,0,0,0-.4-2.72,2.07,2.07,0,0,0-1.86-1.48c-1.17.09-1.8,1.59-2.18,2.86l-1.08,3.56-.07,0a2.91,2.91,0,0,0-1.83-3.2,3.42,3.42,0,0,0-3.24.49,4.48,4.48,0,0,0-.6.56c-.17-.55-.42-1.1-.54-1.5-.35-1.26-.48-3.45-1.6-4.12s-2,.14-2.74,1a2.55,2.55,0,0,0-.58.87c-.24.75.13,1.73-.7,2.07s-1.69-.86-2.43-1.11a2,2,0,0,0-2,.38c-.77.77-.43,3.2-1.66,2.11-2-1.81-3-5.16-6.2-3.63-3.48,1.65-2.75,6.34-1.2,9.56a2.19,2.19,0,0,0-2.33.36,2.87,2.87,0,0,0-.13,3.82c-.47-.49-.81-1.13-1.26-1.66a1.91,1.91,0,0,0-1.7-.82,2.11,2.11,0,0,0-1.16.9,4.51,4.51,0,0,0-.55,1,5.87,5.87,0,0,0-1-2.39,2.17,2.17,0,0,0-.62-.9,1.55,1.55,0,0,0-2,.13c.08-1.15.11-2.31.08-3.46s-.34-2.83-1.4-3.18a1.73,1.73,0,0,0-1.84.77,6,6,0,0,0-.88,2.12,36.46,36.46,0,0,0-.74,3.63l-.11,0a3.69,3.69,0,0,0-.82-1.71,7.33,7.33,0,0,0-2.65-1.76.88.88,0,0,0-.54-.12,1,1,0,0,0-.43.25,8.13,8.13,0,0,0-1.52,1.82c-.48-1.19-1-2.86-2-3.24s-1.93.56-2.54,1.56a2.83,2.83,0,0,0-.43,1c-.12.78.4,1.67-.36,2.18s-1.8-.49-2.57-.58a2,2,0,0,0-1.93.79c-.45.64-.23,2-.53,2.43l-.25.16a.88.88,0,0,1-.52-.17c-2.28-1.35-3.73-4.46-6.67-2.27-2.33,1.73-2.15,4.61-1.08,7.13a2.62,2.62,0,0,0-.72-.18,2.25,2.25,0,0,0-1.43-1.79,2.13,2.13,0,0,0-2.11.77,5.69,5.69,0,0,0-1,2.12c-.13.46-.25.93-.36,1.4a2.25,2.25,0,0,0-1,1s0,.08-.07.12a3.74,3.74,0,0,0-.48-.63,5.44,5.44,0,0,0-1.23-.91,1.89,1.89,0,0,0-.57-.59,1.34,1.34,0,0,0-1-.16l-.23-.09a1.3,1.3,0,0,0-.63-.13,1.14,1.14,0,0,0-.49.25c-.24.19-.46.4-.68.61A8.59,8.59,0,0,0,191,128.3c-.32-.32-.77-.72-1.22-.44a1.57,1.57,0,0,0-.45.5c-.06.09-.13.21-.2.34-1.26-.29-2.06.64-2.73,1.59a3.48,3.48,0,0,0-.38.68h0c-.54-.13-1,.42-1.33,1a6.11,6.11,0,0,0-.39.95c-.3-.36-.63-.69-.83-1-.73-1-1.56-3-2.82-3.14s-1.8,1-2.22,2.1a2.9,2.9,0,0,0-.26,1c0,.8.68,1.55,0,2.22-.48.49-1.31.19-2,.05-1.43-1.05-2.88-1.76-5-.38a4.33,4.33,0,0,0-1.92,2.42,2.8,2.8,0,0,0-3.23,1.09,4.62,4.62,0,0,0-1.24,2.93,2.21,2.21,0,0,0-1.81.51c-1.16,1-1.16,2.82-1.39,4.33a6.05,6.05,0,0,0-.59-.84c0-.12-.09-.25-.14-.37a3.18,3.18,0,0,0-1.23-1.64,1.91,1.91,0,0,0-1.68,0,3.82,3.82,0,0,0-.68-.06,3.09,3.09,0,0,0-1.26.29,9.33,9.33,0,0,0-1.85-2.21c-.37-.32-.89-.71-1.4-.44a1.9,1.9,0,0,0-.52.5,13.5,13.5,0,0,0-.87,1.4c-.63-.82-1.35-1.65-2.19-1.65-1.25,0-1.7,1.2-2,2.35a2.84,2.84,0,0,0-.16,1.08,1.25,1.25,0,0,0,0,.19l-.13.2a5.5,5.5,0,0,0-.45,1c-.35-.36-.72-.69-1-1-.84-1-1.8-3-3.24-3.14s-2.07,1-2.56,2.1a2.67,2.67,0,0,0-.29,1c0,.8.78,1.55,0,2.23s-2.12-.08-3,0a2.5,2.5,0,0,0-2,1.22c-.54,1,.72,3.16-1,2.67-2.83-.82-5.08-3.53-8-.72a4.37,4.37,0,0,0-1.42,2.94,2.76,2.76,0,0,0-2.08.51,3.16,3.16,0,0,0-1,1.38,3.66,3.66,0,0,0-.24-.59c-1.65-3.48-4.75-1.87-7.7-2.14-1.78-.17.18-1.58.07-2.69a2.4,2.4,0,0,0-1.44-1.77c-.79-.38-2.37-.24-2.8-1s.53-1.25.84-2a2.21,2.21,0,0,0,.11-1c0-1.15-.22-2.37-1.61-2.74s-2.71.78-3.83,1.44a5.28,5.28,0,0,0-.66-2.54,1.63,1.63,0,0,0-1.48-1,1.84,1.84,0,0,0-1.08.8l-1.27,1.59c.93-1.17-.64-4.09-1.32-5.06a1.67,1.67,0,0,0-.49-.5c-.49-.29-1,.06-1.43.34-.23.17-.46.36-.69.56a1.49,1.49,0,0,0-.32-.24,3.39,3.39,0,0,0-2-.22,20,20,0,0,0-2.31.44,3.88,3.88,0,0,0,1.25-1.45,2.18,2.18,0,0,0,.27-1.49,2.25,2.25,0,0,0-1.55-1.36c-.6-.21-1.24-.31-1.84-.52a2.67,2.67,0,0,0,3.16-1.7,2.77,2.77,0,0,0-2-3.2,2.23,2.23,0,0,0-.45-.08c.62-2.35.22-4.74-2.47-5.89-3.68-1.58-4.87,1.56-7.27,3.19a1.58,1.58,0,0,1-.49.23l-.44-.16c-.35-.44-.34-1.62-.91-2.13a2.65,2.65,0,0,0-2.33-.43c-.86.21-1.94,1.3-2.84,1s-.47-1.27-.73-2a2.45,2.45,0,0,0-.64-.84c-.84-.83-1.82-1.64-3.13-1a2.62,2.62,0,0,0-1.23,1.5,4.42,4.42,0,0,0-1.15-.47A5.61,5.61,0,0,0,61,120.72a11.48,11.48,0,0,0-1.26-2.41c0-.09,0-.18,0-.25a1.68,1.68,0,0,0-.19-.66c-.3-.47-.95-.39-1.43-.31h0a1.86,1.86,0,0,0-.34,0,2.14,2.14,0,0,0-1.41.54c-.13,0-.28.09-.41.15a7.94,7.94,0,0,0-1.66-2.17,2,2,0,0,0-.67-.45,2,2,0,0,0-1.2.11,5.4,5.4,0,0,0-2.5,1.91,1.91,1.91,0,0,0-.92,0,3.18,3.18,0,0,0-1.38.7v0a18.48,18.48,0,0,0,.78-1.9,3.45,3.45,0,0,0,.25-1.92,1.61,1.61,0,0,0-1.84-1.24,2.09,2.09,0,0,0-1.24.93,10.07,10.07,0,0,0-.23-2.66c-.1-.44-.26-1-.72-1.09a1.11,1.11,0,0,0-.56.12,7.32,7.32,0,0,0-3.21,2.48l-.22,0c0-.39,0-.79,0-1.18a2,2,0,0,0-.27-1.26,1.11,1.11,0,0,0-1.43-.07,4.52,4.52,0,0,0-1,.69,4.38,4.38,0,0,0-.45-.75,1.9,1.9,0,0,0-2.45-.78,4.37,4.37,0,0,0-1.29,2.41c-.36,1.08-.8,2.65-1.85,2.54-1.26-.13-1.83-1.55-3.33-.65a11,11,0,0,0-.33,3.4l-.1-.08a2.49,2.49,0,0,0-1.64-.68,1.6,1.6,0,0,0-1.21,1,.89.89,0,0,1-.08-.17c-.5-1.09-.94-3.1-2-3.51s-1.76.53-2.32,1.47a2.51,2.51,0,0,0-.39.92c-.12.74.36,1.58-.33,2.06s-1.65-.47-2.35-.55a1.83,1.83,0,0,0-1.77.75c-.38.58-.22,1.74-.45,2.23l-.32.22a1,1,0,0,1-.41-.16c-2.09-1.28-3.41-4.22-6.1-2.15A4.26,4.26,0,0,0,7,121.61a5.54,5.54,0,0,0-1.63-2.35c-.85-.67-2-.89-2.49.42a5,5,0,0,0-.1,2.08,2.08,2.08,0,0,0-1.61-1,1.86,1.86,0,0,0-1.23.53V226.58H1203.51a2.09,2.09,0,0,0,.89.5,7,7,0,0,0,.57-.5h266l.33.31c0-.1.09-.2.14-.31h128.75V121.34A2.63,2.63,0,0,0,1599.54,122.3Z"/></svg>