<svg id="Layer_1" data-name="Layer 1" xmlns="http://www.w3.org/2000/svg" viewBox="0 0 803 141.33"><defs><style>.cls-1,.cls-2{fill:#fff;}.cls-2{font-size:33.4px;font-family:Raavi, Raavi;letter-spacing:0.13em;}.cls-3{letter-spacing:0.12em;}.cls-4{letter-spacing:0.12em;}.cls-5{letter-spacing:0.12em;}.cls-6{letter-spacing:0.12em;}</style></defs><title>logo</title><path class="cls-1" d="M306.53,67.73c0-.12,0-.25,0-.37A4.78,4.78,0,0,0,304,63.3c-2-1.06-4.46-.54-6.66,0-1.79.44-3.41,1.79-4.92,2.84a39.38,39.38,0,0,0-7.2,6.63A20.09,20.09,0,0,0,281,81.93c-.91,4.48-1,10.87,3.19,13.79,2.43,1.71,4.45.81,7,1.37s1.88,2.86,1.55,4.71a9.53,9.53,0,0,1-2.5,4.5c-1.74,1.85-3.39,2.88-6.06,2.55-4.17-.53-8.42-3.07-10.3-6.91a25.13,25.13,0,0,1-2.31-14.58,36.06,36.06,0,0,1,10.66-19.6c4.83-4.66,11.15-8.73,18.08-8.71H301c5.6.23,10.42,6,7.77,11.38A12.92,12.92,0,0,1,303.23,76a9.9,9.9,0,0,1-4,1.16c-.93,0-3.18.32-3.54-.81-.59-1.85,2.25-2,3.27-2a7.16,7.16,0,0,0,4.81-1.94A7,7,0,0,0,306.53,67.73Z"/><path class="cls-1" d="M157.48,87.89q1.22-2.15,2.21-4.38a41.19,41.19,0,0,0,2.92-9.77c.61-3.53,1-4.31,4.18-3.6,2.91.65,5.46,2.77,5.69,5.94s-1.73,5.84-2.69,8.78c-1.2,3.69-.84,7.68-.45,11.54a7.47,7.47,0,0,0,.6,2.68c1.47,2.87,4.55,4.16,7.66,4.11a12,12,0,0,0,4.56-1c1.13-.49,3-2.58,4.22-2,2.48,1.08-.38,4.57-1.39,5.68-2.25,2.48-5.25,3.17-8.55,3.06-2-.07-4.18-1.2-6.12-1.2a24.08,24.08,0,0,1-9.38-5.6c-.69-.72-4.91-6.67-3.36-7.52-3.1,1.69-4.54,5.15-7.1,7.43a20.82,20.82,0,0,1-9.3,4.73c-6.24,1.26-11.77-4.14-13-10-2-9.42,1.35-19.24,6.74-26.92a35.65,35.65,0,0,1,3.56-4.38c4.77-4.93,14.11-8.14,20.81-8.42,5.81-.23,17,2.66,15.16,10.68-3.28-1.3-4.94-3.39-9-3.72s-8.1-.65-11.92.57c-3.65,1.15-6.72,3.61-9.61,6.12-6.33,5.49-9.94,12.44-8.83,21.06a15.49,15.49,0,0,0,3.8,8.35c2.86,3.15,5,3.23,8.24.48A47.51,47.51,0,0,0,157.48,87.89Z"/><path class="cls-1" d="M6.53,123.15a28.85,28.85,0,0,1,4.19,2.78,35.25,35.25,0,0,0,7.41,4.32c6.77,2.54,14.37,3.36,21.36,1.24C47.66,129,55,124,61.19,118.19a47.33,47.33,0,0,0,7.12-9.12,344.43,344.43,0,0,0,20.54-35c4.77-9.44,9.39-19,13.33-28.8,3.66-9.1,9.27-20.84,8.39-30.87-1.65,1.63-3.14,3.44-4.73,5.13-7.44,8-14.48,16.33-22.5,23.64C78.75,47.34,72.81,50.36,67,52.88c-7.19,3.14-15.08.18-19-6.65-.92-1.63-1.74-3.32-2.5-5-1.28-2.87-2.41-5.81-3.66-8.69,0-.06,0-.13-.08-.2a80.26,80.26,0,0,0-3.2-7.49,7.42,7.42,0,0,0-3.17-3c-1.6-.38-3.47.11-5.61.73a12,12,0,0,0-5.69,3.74c-2,2.69-3.82,5.51-5.79,8.22A8.9,8.9,0,0,1,16,37a2.79,2.79,0,0,1-2.56-.17,2.57,2.57,0,0,1-.56-2.39C16.37,26.59,20.56,19.08,28,14.37c5.92-3.72,11.78-.94,14.39,5.55q2,5,4.3,9.94c2.38,4.34,5.66,7.91,11.09,8.62a23.49,23.49,0,0,0,10.71-1.6,51.83,51.83,0,0,0,13.22-7c5.54-4,10.42-8.9,15.45-13.55,4.26-3.94,13.92-17.51,21.07-12.84a3.49,3.49,0,0,1,1.06,3.06c-2.76,10.22-5.1,20.62-8.75,30.53C106.12,49.21,100.74,61,95.31,72.64S85,95.92,79,107.2c-1.74,3.31-3.57,6.52-5.62,9.65a74.51,74.51,0,0,1-12.81,15.08c-7.07,6.17-17,8.19-26.19,7.6a44.77,44.77,0,0,1-13-2.75,47.6,47.6,0,0,1-14.14-8.86c-.81-.73-3.63-3.59-2.94-4.77C4.79,122.34,5.93,122.87,6.53,123.15Z"/><path class="cls-1" d="M151.47,40.88l-5,1.28c-7.8,2-11.67,5.87-17.64,10.92a191.73,191.73,0,0,1-28.29,20.36c1.24,2.09,5.23,2.85,7.35,4.36A25.73,25.73,0,0,1,114,84.09c3.55,5.07,5.51,11.09,7.73,16.8,2.32,6,3.09,12.65,8.25,17a30.59,30.59,0,0,0,18.26,7c1.74.06,3.64,0,5,1.11,6.41,5-.14,9.69-5.28,10.48-4.62.72-10.74.69-15.08-1.27-8.94-4-14.9-13-17.69-22.34-1.61-5.45-2.33-11.14-4.22-16.5-2.42-6.82-11.07-22.33-19.86-19.47-3.41,1.11-6.75,2.6-10.25,3.21A18.37,18.37,0,0,1,73,79.45c-1.1-.31-2.32-2.23-2.41-3.5a4,4,0,0,1,2.43-3c3.2-.73,6.68-1.71,9.78-1.14,19.83,3.65,31.86-14.33,44.59-26.42,8.77-8.33,18.63-16.07,30.28-19.33,5.45-1.53,18.49-2.75,12.52,6.43-2.65,4.07-7.79,5.57-12.5,6.77Z"/><path class="cls-1" d="M242.74,67.48a6.09,6.09,0,0,1-7.5-5.86,15.91,15.91,0,0,1,4.17-10.83c3-3.37,11.84.52,12.52,4.55C252.66,59.59,246.74,66.62,242.74,67.48Zm3.94-14a3,3,0,0,0-2.91.74c-1.28,1.2-1.68,3.06-2,4.79a5.57,5.57,0,0,0,.05,3,1.93,1.93,0,0,0,2.37,1.22,3.27,3.27,0,0,0,.58-.39c1.68-1.35,6.12-4.2,4.74-6.89A4.78,4.78,0,0,0,246.68,53.44Z"/><path class="cls-1" d="M256.34,61.41c-.3,0-1.65,2.83-1.81,3.14a242.86,242.86,0,0,1-19.34,32c-.94,1.3-1.88,2.6-2.84,3.88a11.22,11.22,0,0,1-3.44,3.42c-8.62,4.64-5.59-7.79-3.85-11.41,2.73-5.69,7.1-10.36,10.25-15.8a10.35,10.35,0,0,0,1.5-3.79c.34-2.71-2.66-5.7-5.16-3.39-1.49,1.38-2.77,3-4.13,4.5q-6.37,7.1-12.74,14.2c-3.49,3.91-5.32,7.36-10,10.2a3.51,3.51,0,0,1-2.66.72c-1.59-.44-1.81-2.58-1.63-4.23,1.55-14.67,8.33-26.64,16.33-38.63,3.05-4.57,8.16-8.05,11.56-12.6a10.17,10.17,0,0,0,2.32-4.76,5.53,5.53,0,0,0-8.32-5.39,10.08,10.08,0,0,0-3.14,3.47c-4.15,6.52-5.78,13.92-10.32,20.12-3.17,4.35-4.83,9.6-8.36,13.9-3.79,4.6-8.5,8.28-13.18,11.91-2,1.51-13.35,8.93-12.54,11.64a1.74,1.74,0,0,0,1.44.93,16.88,16.88,0,0,0,5.29-2,67.32,67.32,0,0,0,6.71-6c1.12-1.06,1.84-1.34,3.14,0s1.3,2.66,1.1,4.34a42.15,42.15,0,0,0-.36,7.93c.32,4.87,4.88,7.39,9.32,5.38,2.63-1.19,5.31-2.31,7.9-3.6,2-1,3.2-.32,4.35,1.48,2.15,3.39,5.82,4.8,9.38,5.64,2.5.59,5.05-.17,7.46-.81,4-1.07,6.26-4.17,8.24-7.58,3.43-5.88,6.25-12.09,9.38-18.14,2.79-5.62,5.38-11.35,7.68-17.19C256,64.57,257.29,61.52,256.34,61.41Z"/><path class="cls-1" d="M271.47,83.69c1.5,7.08,1.1,15.66-4.75,20.74-5.45,4.73-17.3,6.91-22.32.45-3.54-4.56-4.29-11.75-2.46-17.14,1.36-4,5.52-6.94,9.47-8.12a21.8,21.8,0,0,1,6.23-.64c1.73,0,2.76-.23,2.12-2.2-1.17-3.58-2.89-7-3.54-10.75-.71-4.06-.3-9.79,4.54-10.89,2.43-.55,5.67,0,6.62,2.62.87,2.44-1.52,5.1-2.92,6.87-1.06,1.34-1.07,1.73-.22,3.41.63,1.23,1.58,2.27,2.25,3.47A45.25,45.25,0,0,1,271.06,82C271.21,82.54,271.34,83.11,271.47,83.69Zm-9.18,3.75c.08-2.14-.17-4.36-1.57-5.26-2.26-1.45-5.91-.15-8.14.81a11.38,11.38,0,0,0-6.73,9.29c-.37,3.36.51,6.76,4,8.12s6.8-.57,9-3C261.48,94.5,262.14,91.21,262.29,87.44Z"/><path class="cls-1" d="M274.47,78.41c.71,0,1.27.18,1.3.48.13,1.54-3.77,1.74-4.43,2.06a13.83,13.83,0,0,1-4.45,1c-.91.13-2.68.49-2.63-1.26.05-1.57,1.56-1.94,2.44-2a29.53,29.53,0,0,1,4.88-.16C271.92,78.47,273.37,78.34,274.47,78.41Z"/><text class="cls-2" transform="translate(171.75 136.92)">I<tspan class="cls-3" x="12.33" y="0">llust</tspan><tspan class="cls-4" x="90.83" y="0">r</tspan><tspan class="cls-5" x="105.59" y="0">a</tspan><tspan class="cls-6" x="125.57" y="0">tions</tspan></text><path class="cls-1" d="M395.59,97.18c-2,1.21-4.1,2.43-6.21,3.53-4.57,2.38-10.1,4.81-15.37,3.7-1.6-.34-4.26-.86-5.46-2.09-2-2.08-1.42-5.53-1.82-8.13a4.53,4.53,0,0,0-1.79-3.2c-2.77-1.76-5.83.07-8.28,1.49-3.85,2.24-7.59,6.24-12.2,6.64-6.12.52-1.35-5.44.27-7.54a96.86,96.86,0,0,1,8-8.91c2.09-2.12,4.66-3.49,6.75-5.62,3.07-3.12,3.67-8.7.13-11.64-3.82-3.17-9.5,1.32-12.91,3.27a146,146,0,0,0-12.93,8.55c-3.57,2.6-7.08,5.29-10.62,7.94-1.39,1-5.88,6.29-8.14,6.31.22-.7,1.77-1.41,1.77-2.15v0c0-1.62-.35-2.77.37-4.08,1-1.8,1.17-3.76,2.1-5.61,1.86-3.7,3.53-7.35,5.62-10.93,2.65-4.54,5.16-9.06,8.18-13.36,2.22-3.15,3.71-6.42,6.24-9.35,1.91-2.2,11.38-13.1,4.76-14.82-4.78-1.24-9.71,5.69-11.8,9.1-3.63,6-6.65,12.18-10.37,18.14-4.93,7.92-10,15.74-14.92,23.69-2.45,4-4.85,8-7.14,12-1.8,3.17-5.43,7.77-3.42,11.64,1.89,3.64,7.89.67,11.15-1.33l.26-.18c.45-.28.84-.54,1.15-.76,8.61-5.86,15.73-14.36,23.8-20.86a60,60,0,0,1,4.86-3.71c1.09-.71,4.06-3,5.36-1.9,2.05,1.73-3.51,6.5-4.6,7.57-2,1.93-3.74,4-5.6,6.09-1.35,1.48-3.14,2.71-4.38,4.26-2.26,2.85-1.57,6.78.44,9.56,6.17,8.54,17.48.87,23-4.32,2-1.91,4.22-5.11,7.16-5.48a1.59,1.59,0,0,1,1.88,1.67c.08,2.43-.17,5.15.9,7.45,1.3,2.79,4.3,3.81,7.05,4.61,5,1.46,10.43-.51,14.94-2.61s8.84-4.49,13.21-6.69C399.65,97.78,398.2,95.62,395.59,97.18Z"/></svg>